<svg xmlns="http://www.w3.org/2000/svg" viewBox="0 0 42.44 40.1"><defs><style>.cls-1{fill:#fff;}</style></defs><g id="Layer_2" data-name="Layer 2"><g id="Layer_1-2" data-name="Layer 1"><path class="cls-1" d="M14.23,35l3.08,4.83a.64.64,0,0,0,1.07,0l3.31-4.75A3,3,0,0,1,24,33.81l5.55-.23a6.54,6.54,0,0,0,6.27-5.41,12.76,12.76,0,0,0,.11-1.72V12.89A5.77,5.77,0,0,0,35,9.69C33.8,7.87,31.1,5.63,25.19,6.11L7,6.06s-7.43-.49-7,9.5V26a8.35,8.35,0,0,0,1.15,4.4,6.77,6.77,0,0,0,6,3.3l5.05.14A2.58,2.58,0,0,1,14.23,35Z"/><path class="cls-1" d="M8,2.87a.25.25,0,0,0,.23.35l21.05.33s6.46-.21,8.87,5.59a9.8,9.8,0,0,1,.67,3.75V26.24a.35.35,0,0,0,.5.32c.85-.41,2.5-1.78,3-6.2a19.71,19.71,0,0,0,.09-2.66L42,6s-.42-6.43-9.21-6H14.53a11.12,11.12,0,0,0-3,.39C10.17.78,8.61,1.51,8,2.87Z"/></g></g></svg>